<?xml version="1.0" encoding="UTF-8"?>
<svg version="1.1" xmlns="http://www.w3.org/2000/svg" width="1000" height="300">
<path d="M0 0 C1.16178268 -0.02251831 2.32356537 -0.04503662 3.52055359 -0.0682373 C8.85334019 -0.13896431 14.1859453 -0.19696776 19.51904297 -0.23535156 C22.33346806 -0.25759806 25.14656083 -0.29931202 27.96044922 -0.35839844 C32.0100528 -0.44326826 36.0582108 -0.47064666 40.10864258 -0.49414062 C41.36509079 -0.52713257 42.621539 -0.56012451 43.9160614 -0.59411621 C52.4394926 -0.57458018 52.4394926 -0.57458018 55.73135376 1.76147461 C59.56567383 6.07107743 59.56567383 6.07107743 59.56567383 9.22460938 C60.22567383 9.22460938 60.88567383 9.22460938 61.56567383 9.22460938 C63.00148856 10.83918016 64.36712166 12.51680013 65.69067383 14.22460938 C66.77735352 15.61679688 66.77735352 15.61679688 67.88598633 17.03710938 C68.4402832 17.75898437 68.99458008 18.48085937 69.56567383 19.22460938 C68.24567383 21.53460938 66.92567383 23.84460938 65.56567383 26.22460938 C64.90567383 26.22460938 64.24567383 26.22460938 63.56567383 26.22460938 C63.19442383 27.18367188 63.19442383 27.18367188 62.81567383 28.16210938 C61.56567383 30.22460938 61.56567383 30.22460938 59.62817383 31.16210938 C57.56567383 31.22460938 57.56567383 31.22460938 55.81567383 29.91210938 C54.56567383 28.22460938 54.56567383 28.22460938 54.56567383 26.22460938 C53.90567383 26.22460938 53.24567383 26.22460938 52.56567383 26.22460938 C52.56567383 25.56460938 52.56567383 24.90460938 52.56567383 24.22460938 C51.90567383 24.22460938 51.24567383 24.22460938 50.56567383 24.22460938 C49.53893555 22.76667969 49.53893555 22.76667969 48.49145508 21.27929688 C46.90663364 19.2992886 46.02061542 18.35865764 43.56713867 17.63574219 C41.28062658 17.41229794 39.05038214 17.34190708 36.75317383 17.34960938 C35.96491211 17.32898438 35.17665039 17.30835937 34.36450195 17.28710938 C32.43201475 17.2402612 30.4987241 17.22887189 28.56567383 17.22460938 C33.96966275 24.03418127 39.56825064 30.52991047 45.57836914 36.80737305 C48.07585579 39.44995725 50.19827221 41.82657541 51.56567383 45.22460938 C52.22567383 45.22460938 52.88567383 45.22460938 53.56567383 45.22460938 C54.20504883 46.19398437 54.84442383 47.16335937 55.50317383 48.16210938 C57.2762839 51.46716163 57.2762839 51.46716163 60.56567383 52.22460938 C60.82219727 51.64839844 61.0787207 51.0721875 61.34301758 50.47851562 C62.68475163 48.00509534 64.2182686 46.22635038 66.12817383 44.16210938 C69.14368108 40.8374584 72.04940304 37.45969569 74.87817383 33.97460938 C79.54672286 28.22500696 84.32325195 22.57357724 89.11889648 16.93017578 C90.62927088 15.14963654 92.13512384 13.36535667 93.63989258 11.58007812 C94.14020996 10.98694824 94.64052734 10.39381836 95.15600586 9.78271484 C96.1172416 8.64294112 97.07788067 7.50266386 98.0378418 6.36181641 C103.17432456 0.27788275 103.17432456 0.27788275 105.37350655 -0.02148628 C106.47689275 -0.0187209 106.47689275 -0.0187209 107.60256958 -0.01589966 C108.44673431 -0.01864899 109.29089905 -0.02139832 110.16064453 -0.02423096 C111.08852783 -0.01704041 112.01641113 -0.00984985 112.97241211 -0.00244141 C113.94806122 -0.00273346 114.92371033 -0.00302551 115.92892456 -0.00332642 C119.16470123 -0.0019293 122.40024971 0.01364987 125.63598633 0.02929688 C127.87515131 0.03302565 130.11431792 0.03587326 132.35348511 0.03787231 C138.25543703 0.04551945 144.15729097 0.06517722 150.0592041 0.08728027 C156.07827428 0.10771545 162.09736024 0.11686904 168.11645508 0.12695312 C179.93290444 0.14842209 191.749281 0.18257105 203.56567383 0.22460938 C203.58881146 10.22961627 203.60659619 20.23461684 203.617486 30.239645 C203.62271171 34.88503334 203.62980372 39.53040342 203.64111328 44.17578125 C203.65195322 48.65613612 203.65795302 53.13647339 203.66055107 57.61684036 C203.66240332 59.32891746 203.66602011 61.04099357 203.67140388 62.7530632 C203.67862897 65.14512997 203.67966414 67.53712336 203.67919922 69.92919922 C203.68279449 70.64201553 203.68638977 71.35483185 203.69009399 72.08924866 C203.67972599 76.99650505 203.67972599 76.99650505 202.56567383 79.22460938 C200.27457786 79.30536602 197.98268116 79.36368668 195.69067383 79.41210938 C193.77641602 79.46431641 193.77641602 79.46431641 191.82348633 79.51757812 C190.7484082 79.42089844 189.67333008 79.32421875 188.56567383 79.22460938 C186.2544922 75.75783693 186.32149487 74.46129056 186.33862305 70.3762207 C186.33884964 68.57469292 186.33884964 68.57469292 186.33908081 66.73677063 C186.34940338 65.43982773 186.35972595 64.14288483 186.37036133 62.80664062 C186.37409228 61.46571564 186.37693886 60.12478794 186.37893677 58.78385925 C186.38656683 55.25746105 186.4062098 51.73122803 186.42834473 48.20489502 C186.44881673 44.60536941 186.45794137 41.00581707 186.46801758 37.40625 C186.4894564 30.34562916 186.52463337 23.28514744 186.56567383 16.22460938 C181.94567383 16.22460938 177.32567383 16.22460938 172.56567383 16.22460938 C172.56567383 41.63460937 172.56567383 67.04460937 172.56567383 93.22460938 C202.92567383 93.22460938 233.28567383 93.22460938 264.56567383 93.22460938 C263.57567383 90.25460938 262.58567383 87.28460938 261.56567383 84.22460938 C257.85337432 67.13076513 261.41262035 48.72807015 270.02270508 33.67773438 C278.66295191 20.47560539 290.75219283 9.76787058 305.56567383 4.22460938 C306.55567383 4.22460938 307.54567383 4.22460938 308.56567383 4.22460938 C309.65414332 9.78789791 310.66605948 15.82097405 308.56567383 21.22460938 C306.26814601 22.92849588 304.0024372 23.87499502 301.35083008 24.93945312 C296.47300835 27.19022921 291.01314486 31.32966731 288.56567383 36.22460938 C287.90567383 36.22460938 287.24567383 36.22460938 286.56567383 36.22460938 C286.14608398 37.32095703 286.14608398 37.32095703 285.71801758 38.43945312 C284.65833022 41.00066358 283.44963428 43.35414013 282.12817383 45.78710938 C275.00356353 60.03632998 274.92354726 75.13769804 279.56567383 90.22460938 C284.91912961 103.2993956 295.02192552 113.76545513 307.78442383 119.72851562 C322.41516869 125.5116141 337.26243744 125.66048212 351.87817383 119.91210938 C356.60155696 117.83208745 360.47174927 115.33955197 364.56567383 112.22460938 C365.22567383 112.22460938 365.88567383 112.22460938 366.56567383 112.22460938 C366.56567383 111.56460938 366.56567383 110.90460938 366.56567383 110.22460938 C367.30817383 109.66773438 368.05067383 109.11085938 368.81567383 108.53710938 C372.1781198 105.70959799 373.5530401 103.10079286 375.56567383 99.22460938 C376.22567383 99.22460938 376.88567383 99.22460938 377.56567383 99.22460938 C378.29912325 97.11789294 379.00978025 95.00663624 379.69848633 92.88476562 C380.24905912 91.19584638 380.82447067 89.5146667 381.43286133 87.84570312 C385.66589743 74.96517897 385.17809184 59.56536477 379.56567383 47.22460938 C376.31824627 41.19147381 372.75198071 35.76262789 367.56567383 31.22460938 C367.09000977 30.75796875 366.6143457 30.29132813 366.12426758 29.81054688 C359.68306621 23.75736969 351.76783402 20.11844256 343.35595703 17.63745117 C342.45810989 17.37159714 341.56026276 17.1057431 340.63520813 16.83183289 C339.61078865 16.53125725 339.61078865 16.53125725 338.56567383 16.22460938 C338.57677689 16.82738205 338.58787994 17.43015472 338.59931946 18.05119324 C338.70999939 24.32898124 338.78537686 30.6064918 338.84033203 36.88500977 C338.86546508 39.22757221 338.89957691 41.57005633 338.94287109 43.91235352 C339.00357311 47.28095836 339.03189634 50.64852587 339.05395508 54.01757812 C339.07976151 55.06358688 339.10556793 56.10959564 339.13215637 57.18730164 C339.13495545 64.45554235 339.13495545 64.45554235 336.22265625 68.38989258 C333.56567383 70.22460938 333.56567383 70.22460938 330.56567383 70.78710938 C326.65820401 70.05445878 325.23321219 69.20492443 322.56567383 66.22460938 C321.94090233 62.79141008 322.09499976 59.44957196 322.25317383 55.97460938 C322.27573242 55.03875 322.29829102 54.10289062 322.3215332 53.13867188 C322.38036788 50.83235263 322.46250237 48.529301 322.56567383 46.22460938 C314.80955141 49.84706978 309.76643294 53.36471271 306.69067383 61.66210938 C304.27060638 70.24103111 305.65207072 76.38386128 309.56567383 84.22460938 C313.43106243 90.35591543 319.63056372 93.52621506 326.56567383 95.22460938 C334.32475327 95.86059949 341.15623961 94.41627574 347.37817383 89.53710938 C353.20101279 84.02500196 354.93298054 78.04734322 355.78051758 70.22851562 C355.57962379 67.41965518 355.06153635 65.69391128 354.08129883 63.09960938 C352.1273716 57.6069474 352.22918906 52.43431408 352.37817383 46.66210938 C352.39170898 45.65341797 352.40524414 44.64472656 352.41918945 43.60546875 C352.45417806 41.14460317 352.50326224 38.68490603 352.56567383 36.22460938 C354.56567383 37.22460938 356.56567383 38.22460937 358.56567383 39.22460938 C358.56567383 39.88460937 358.56567383 40.54460937 358.56567383 41.22460938 C359.22567383 41.22460938 359.88567383 41.22460938 360.56567383 41.22460938 C368.60180667 49.99309915 372.42782087 61.36953001 371.94458008 73.18554688 C370.72007599 83.00682708 367.31561503 91.85952575 360.56567383 99.22460938 C359.90567383 99.22460938 359.24567383 99.22460938 358.56567383 99.22460938 C358.56567383 99.88460937 358.56567383 100.54460937 358.56567383 101.22460938 C349.41113839 109.1359363 339.11445247 111.90724984 327.21801758 111.54492188 C318.99366238 110.82364153 310.94226841 108.7607359 304.56567383 103.22460938 C304.56567383 102.56460938 304.56567383 101.90460938 304.56567383 101.22460938 C303.73036133 100.91523438 303.73036133 100.91523438 302.87817383 100.59960938 C295.78005895 96.37910864 293.1750738 88.68147159 290.56567383 81.22460938 C287.78821615 69.92262752 289.57507383 58.62686222 295.07348633 48.42773438 C300.05921515 40.77522037 306.98920649 34.58061834 315.56567383 31.22460938 C317.87567383 30.89460938 320.18567383 30.56460938 322.56567383 30.22460938 C322.56567383 20.65460938 322.56567383 11.08460937 322.56567383 1.22460938 C331.61860003 -3.30185372 346.39143465 1.38735317 355.44067383 4.28710938 C363.09091289 7.11492052 369.13459551 11.27966745 375.56567383 16.22460938 C376.43192383 16.88203125 377.29817383 17.53945312 378.19067383 18.21679688 C386.24157392 25.02298544 393.91601903 35.66302635 395.56567383 46.22460938 C396.55567383 46.22460938 397.54567383 46.22460938 398.56567383 46.22460938 C398.65719727 45.19078125 398.7487207 44.15695313 398.84301758 43.09179688 C401.14109633 30.79397006 413.18541504 19.58879747 422.96801758 12.47851562 C438.99625111 1.78479433 455.53043907 -0.09361255 474.26489258 0.02929688 C475.95310802 0.03303478 477.64132566 0.03587807 479.32954407 0.03787231 C483.73699103 0.04544763 488.14430267 0.06504246 492.55169678 0.08728027 C497.06349864 0.1078714 501.57532273 0.11690219 506.0871582 0.12695312 C514.91339164 0.14829513 523.73951582 0.1823558 532.56567383 0.22460938 C533.61544347 3.37391831 533.66698977 5.61275394 533.62817383 8.91210938 C533.61915039 9.90597656 533.61012695 10.89984375 533.60083008 11.92382812 C533.58342773 13.06271484 533.58342773 13.06271484 533.56567383 14.22460938 C534.05036133 13.76570313 534.53504883 13.30679688 535.03442383 12.83398438 C539.59744702 8.65706315 543.92867367 5.72336365 549.56567383 3.22460938 C550.17926758 2.88042969 550.79286133 2.53625 551.42504883 2.18164062 C557.14592117 -0.37604865 563.54830658 0.0819974 569.68603516 0.09521484 C570.68992279 0.09346252 571.69381042 0.09171021 572.7281189 0.08990479 C576.03466538 0.08551565 579.34115809 0.08841281 582.64770508 0.09179688 C584.9460196 0.09112326 587.24433404 0.09015275 589.54264832 0.08889771 C594.35168132 0.08742494 599.16069572 0.08956276 603.96972656 0.09423828 C610.14843878 0.09995138 616.32710772 0.09664393 622.50581837 0.09066582 C627.24710927 0.08706252 631.98838981 0.08819744 636.72968102 0.09079361 C639.00917249 0.09146269 641.2886649 0.09063511 643.56815529 0.08831406 C646.74289088 0.0857896 649.91755493 0.08962446 653.09228516 0.09521484 C654.04238968 0.09319061 654.9924942 0.09116638 655.97138977 0.08908081 C662.45140816 0.1103437 662.45140816 0.1103437 663.56567383 1.22460938 C663.66361914 2.59540821 663.69365463 3.97116618 663.69506836 5.34545898 C663.6997966 6.65703224 663.6997966 6.65703224 663.70462036 7.99510193 C663.70259613 8.94611282 663.7005719 9.89712372 663.69848633 10.87695312 C663.69944305 11.84742081 663.70039978 12.81788849 663.7013855 13.81776428 C663.70206748 15.87484807 663.70021197 17.93193399 663.69604492 19.98901367 C663.69070267 23.14506859 663.69598636 26.30098082 663.70239258 29.45703125 C663.70173169 31.45117219 663.7004503 33.44531304 663.69848633 35.43945312 C663.70051056 36.38843979 663.70253479 37.33742645 663.70462036 38.31517029 C663.7014682 39.19270462 663.69831604 40.07023895 663.69506836 40.97436523 C663.69387497 42.135662 663.69387497 42.135662 663.69265747 43.32041931 C663.56567383 45.22460937 663.56567383 45.22460937 662.56567383 47.22460938 C649.74412769 47.34042543 636.92270585 47.42928567 624.10074329 47.48367023 C618.14705247 47.50977132 612.19371933 47.54517966 606.24023438 47.60180664 C600.49548003 47.65610673 594.75106988 47.68602606 589.00607872 47.69899559 C586.81357084 47.70823896 584.62108195 47.72628909 582.42872047 47.75325966 C579.35912903 47.78952241 576.29096235 47.79455576 573.22119141 47.79223633 C572.31344467 47.81021271 571.40569794 47.82818909 570.47044373 47.84671021 C566.00596958 47.81017408 564.14817294 47.67035727 560.49736023 44.87663269 C558.56567383 42.22460938 558.56567383 42.22460938 558.00317383 39.22460938 C558.72023202 35.40029903 559.74339483 33.90841207 562.56567383 31.22460938 C565.47866009 30.71722636 567.81700344 30.53259155 570.73071289 30.56518555 C571.55059692 30.55470184 572.37048096 30.54421814 573.21520996 30.53341675 C575.92095718 30.50465138 578.625426 30.51095976 581.33129883 30.51757812 C583.20889898 30.50446395 585.08648501 30.48916058 586.96405029 30.47175598 C591.90262271 30.43186021 596.84082645 30.42171259 601.77954102 30.41772461 C606.82034522 30.4084018 611.86093202 30.37099361 616.90161133 30.3359375 C626.78962197 30.27131505 636.67747051 30.23811316 646.56567383 30.22460938 C646.56567383 25.93460938 646.56567383 21.64460938 646.56567383 17.22460938 C635.91656736 17.15489544 625.26751577 17.10168982 614.61822701 17.06917286 C609.67256699 17.05356113 604.72706388 17.03240546 599.78149414 16.99829102 C595.00283149 16.96553666 590.22431913 16.94772261 585.44555283 16.93997765 C583.62842317 16.93446287 581.81130113 16.92369429 579.99423599 16.9074192 C564.53739757 16.53019989 564.53739757 16.53019989 550.50317383 22.28710938 C548.50638112 24.07967165 548.50638112 24.07967165 547.56567383 26.22460938 C546.90567383 26.22460938 546.24567383 26.22460938 545.56567383 26.22460938 C542.79300974 34.02272713 542.08510564 42.69524991 545.45629883 50.43945312 C548.85703026 55.91175687 553.49684987 58.49853425 559.56567383 60.22460938 C562.9349815 60.53463313 562.9349815 60.53463313 566.52978516 60.51171875 C567.53353935 60.52196831 567.53353935 60.52196831 568.55757141 60.53242493 C570.00124099 60.54594433 571.44495752 60.55504147 572.88868141 60.56013489 C575.18113626 60.56848109 577.47320353 60.58903965 579.76554871 60.6126709 C584.63636555 60.66073687 589.50722158 60.69374788 594.37817383 60.72460938 C600.01646254 60.76041732 605.65456132 60.80256964 611.2926693 60.86054993 C613.53757246 60.8804374 615.78232565 60.88890167 618.02729797 60.89685059 C627.50026086 60.96739748 635.60251079 62.00706367 644.56567383 65.22460938 C644.56567383 65.88460937 644.56567383 66.54460937 644.56567383 67.22460938 C645.24629883 67.43085938 645.92692383 67.63710937 646.62817383 67.84960938 C655.14521832 71.83631105 660.60345438 79.39129335 664.22583008 87.88867188 C665.95555526 92.67085327 665.90390205 97.19260551 665.75317383 102.22460938 C665.73963867 103.09472656 665.72610352 103.96484375 665.7121582 104.86132812 C665.67719061 106.98269564 665.62339913 109.10373911 665.56567383 111.22460938 C664.90567383 111.22460938 664.24567383 111.22460938 663.56567383 111.22460938 C663.54504883 112.17335938 663.52442383 113.12210937 663.50317383 114.09960938 C662.39152761 121.81850493 656.09667854 128.37618137 650.18676758 133.04882812 C641.82198298 139.11581647 633.29590629 140.33772713 623.11195374 140.3717804 C622.39447305 140.37545708 621.67699236 140.37913377 620.93776983 140.38292187 C618.55079091 140.39387152 616.16385564 140.39778764 613.77685547 140.40161133 C612.05796168 140.40788273 610.33906923 140.41453013 608.62017822 140.42152405 C602.98873831 140.44249203 597.35729836 140.45292189 591.72583008 140.46289062 C589.77999801 140.46694135 587.83416607 140.47105837 585.88833427 140.47524071 C576.74093674 140.49427901 567.59354719 140.50851105 558.44613367 140.51685268 C547.92232445 140.52661037 537.39872638 140.55289726 526.87499148 140.59335357 C518.71840276 140.62362265 510.5618742 140.63833187 502.40523046 140.64163369 C497.54441684 140.64397247 492.68382911 140.65277862 487.82307625 140.67809486 C483.24207478 140.7015694 478.66144485 140.70553193 474.08039856 140.69533348 C472.41165357 140.69484263 470.74288907 140.70102764 469.07420158 140.71488953 C450.01256657 140.86420103 434.23641899 136.57078688 418.56567383 125.22460938 C418.56567383 124.56460938 418.56567383 123.90460938 418.56567383 123.22460938 C417.98430664 122.97582031 417.40293945 122.72703125 416.80395508 122.47070312 C409.18760342 118.23053527 401.32352443 107.26198912 398.90942383 98.97070312 C398.62817383 97.03710937 398.62817383 97.03710937 398.56567383 94.22460938 C397.57567383 94.22460938 396.58567383 94.22460938 395.56567383 94.22460938 C395.44192383 94.95421875 395.31817383 95.68382812 395.19067383 96.43554688 C392.11944238 110.14091719 380.78029026 121.54535006 369.56567383 129.22460938 C353.2934625 138.98793617 333.89176499 143.51854993 315.11645508 138.97460938 C301.8733859 135.08078199 290.6234956 129.83541684 280.56567383 120.22460938 C280.56567383 119.56460938 280.56567383 118.90460938 280.56567383 118.22460938 C279.90567383 118.22460938 279.24567383 118.22460938 278.56567383 118.22460938 C275.07622164 114.40327994 272.1180762 110.19229696 270.56567383 105.22460938 C269.90567383 105.22460938 269.24567383 105.22460938 268.56567383 105.22460938 C268.56567383 116.77460938 268.56567383 128.32460937 268.56567383 140.22460938 C231.60567383 140.22460938 194.64567383 140.22460938 156.56567383 140.22460938 C156.56567383 134.94460937 156.56567383 129.66460937 156.56567383 124.22460938 C187.91567383 124.22460938 219.26567383 124.22460938 251.56567383 124.22460938 C251.56567383 119.27460938 251.56567383 114.32460937 251.56567383 109.22460938 C220.21567383 109.22460938 188.86567383 109.22460938 156.56567383 109.22460938 C156.23567383 76.88460937 155.90567383 44.54460937 155.56567383 11.22460938 C152.92567383 14.52460937 150.28567383 17.82460937 147.56567383 21.22460938 C146.90567383 21.22460938 146.24567383 21.22460938 145.56567383 21.22460938 C145.22729492 22.02705078 145.22729492 22.02705078 144.88208008 22.84570312 C143.13919051 25.99531662 140.85346587 28.58445392 138.50317383 31.28710938 C137.51287578 32.44144452 136.52330451 33.59640353 135.53442383 34.75195312 C135.03813477 35.33058105 134.5418457 35.90920898 134.03051758 36.50537109 C131.82376245 39.09536603 129.66111348 41.71874464 127.50317383 44.34960938 C126.79032227 45.2184375 126.0774707 46.08726563 125.34301758 46.98242188 C123.45689992 49.29875489 123.45689992 49.29875489 121.56567383 52.22460938 C120.90567383 52.22460938 120.24567383 52.22460938 119.56567383 52.22460938 C119.56567383 52.88460937 119.56567383 53.54460937 119.56567383 54.22460938 C118.47340315 55.35211459 117.37198974 56.47141207 116.24145508 57.56054688 C108.32622209 65.42042858 101.15344109 74.16070493 94.42895508 83.04882812 C93.81407227 83.76683594 93.19918945 84.48484375 92.56567383 85.22460938 C91.90567383 85.22460938 91.24567383 85.22460938 90.56567383 85.22460938 C90.31817383 85.76085937 90.07067383 86.29710937 89.81567383 86.84960938 C88.25914846 89.80700757 86.5313171 92.52184988 84.56567383 95.22460938 C83.90567383 95.22460938 83.24567383 95.22460938 82.56567383 95.22460938 C82.31946289 95.80726563 82.07325195 96.38992187 81.81958008 96.99023438 C80.37947951 99.55639489 78.6772079 101.00180169 76.50317383 102.97460938 C70.79280292 109.11867933 71.4097889 116.28422095 71.56567383 124.22460938 C76.18567383 124.22460938 80.80567383 124.22460938 85.56567383 124.22460938 C85.48317383 122.34773438 85.40067383 120.47085938 85.31567383 118.53710938 C85.30589794 114.39701866 85.33786099 112.61948497 87.44067383 108.97460938 C89.56567383 107.22460938 89.56567383 107.22460938 91.56567383 107.22460938 C91.79254883 106.70898438 92.01942383 106.19335938 92.25317383 105.66210938 C93.41393713 103.50640611 94.63686232 101.50349966 96.00317383 99.47460938 C96.41438477 98.86101562 96.8255957 98.24742187 97.24926758 97.61523438 C97.68368164 97.15632813 98.1180957 96.69742188 98.56567383 96.22460938 C99.55567383 96.22460938 100.54567383 96.22460938 101.56567383 96.22460938 C101.56567383 110.74460937 101.56567383 125.26460938 101.56567383 140.22460938 C95.03283423 140.24751376 88.50013286 140.26744225 81.96728516 140.27954102 C79.74299651 140.28458254 77.5187112 140.2914156 75.29443359 140.30004883 C72.10489074 140.31212236 68.91539154 140.31783933 65.72583008 140.32226562 C64.22428123 140.33000755 64.22428123 140.33000755 62.69239807 140.33790588 C61.31107948 140.33801918 61.31107948 140.33801918 59.90185547 140.33813477 C59.08689102 140.34035538 58.27192657 140.34257599 57.43226624 140.34486389 C55.56567383 140.22460938 55.56567383 140.22460938 54.56567383 139.22460938 C54.22416331 134.38406895 54.16578512 129.54125812 54.10571289 124.68994141 C54.07924791 123.06040833 54.03848029 121.43103804 53.98266602 119.80224609 C53.46653958 104.55786118 53.46653958 104.55786118 57.72192383 99.03710938 C58.97301902 97.73657881 60.25336445 96.46334382 61.56567383 95.22460938 C62.59918882 94.02710492 63.62077335 92.81916439 64.62817383 91.59960938 C65.60555826 90.47306065 66.58472919 89.34805941 67.56567383 88.22460938 C71.65552722 83.51341534 75.5768144 78.7417056 79.26098633 73.70117188 C79.90680664 72.97027344 79.90680664 72.97027344 80.56567383 72.22460938 C81.22567383 72.22460938 81.88567383 72.22460938 82.56567383 72.22460938 C82.7796582 71.70125 82.99364258 71.17789063 83.21411133 70.63867188 C85.11545961 67.24262206 87.62520606 64.51176197 90.19067383 61.59960938 C93.72841758 57.53246454 97.23004237 53.46100208 100.56567383 49.22460938 C108.43439345 39.28688894 116.83158983 29.81129726 125.48364258 20.55273438 C127.58130823 18.41240788 127.58130823 18.41240788 128.56567383 16.22460938 C127.90567383 16.55460937 127.24567383 16.88460937 126.56567383 17.22460938 C124.7454368 17.22460938 122.92517542 17.22306973 121.10498047 17.21069336 C114.01132358 17.21908327 114.01132358 17.21908327 107.76489258 20.22070312 C105.28084923 23.05896106 103.25176188 25.85243326 101.56567383 29.22460938 C100.90567383 29.22460938 100.24567383 29.22460938 99.56567383 29.22460938 C99.29182861 29.81685303 99.0179834 30.40909668 98.73583984 31.01928711 C97.60749669 33.14578903 96.43487688 34.715663 94.84301758 36.50976562 C94.30926514 37.11699463 93.7755127 37.72422363 93.22558594 38.34985352 C92.65718994 38.98914795 92.08879395 39.62844238 91.50317383 40.28710938 C90.31448261 41.64023051 89.12698701 42.99440288 87.94067383 44.34960938 C87.3605957 45.0121875 86.78051758 45.67476562 86.18286133 46.35742188 C84.07253483 48.79398242 82.03125069 51.28183796 80.00317383 53.78710938 C76.49810494 58.10851593 72.9286262 62.36839778 69.31567383 66.59960938 C68.81994873 67.18299072 68.32422363 67.76637207 67.81347656 68.36743164 C64.86438896 71.80877818 61.81178657 75.06142652 58.56567383 78.22460938 C58.05004883 77.56460938 57.53442383 76.90460938 57.00317383 76.22460938 C53.20849138 71.55423098 49.3224637 66.98139925 45.06567383 62.72460938 C40.06209309 57.72102864 35.58757578 52.27501367 31.12817383 46.78710938 C28.34420216 43.36249448 25.51771756 40.00531006 22.56567383 36.72460938 C18.92757854 32.6783026 15.49364087 28.49164259 12.06958008 24.26367188 C8.69584089 20.1688683 5.22442347 16.16050688 1.72680664 12.17114258 C-1.30445244 8.67770255 -3.94887107 5.126951 -6.43432617 1.22460938 C-4.70408068 -0.50563611 -2.36014224 0.04338322 0 0 Z M422.56567383 34.22460938 C412.43995369 47.59483843 407.97253785 61.20501276 409.87817383 77.97460938 C411.92629723 91.14111697 418.58667038 103.82569227 428.92895508 112.37695312 C442.38896642 121.80893144 456.28184397 124.72686143 472.52270508 124.51757812 C474.42616951 124.51121086 474.42616951 124.51121086 476.36808777 124.50471497 C479.69397299 124.49090354 483.01920361 124.46409443 486.34490967 124.43060303 C489.75763282 124.39956244 493.17042639 124.38597204 496.58325195 124.37109375 C503.24441929 124.34080654 509.90446567 124.28205192 516.56567383 124.22460938 C516.56567383 109.37460938 516.56567383 94.52460938 516.56567383 79.22460938 C512.75133789 79.16402344 508.93700195 79.1034375 505.00708008 79.04101562 C501.33021954 78.97928315 497.65339155 78.9158719 493.9765625 78.85229492 C491.41278962 78.80886871 488.84898636 78.76719953 486.28515625 78.72729492 C482.60903755 78.6697779 478.93307284 78.60603074 475.25708008 78.54101562 C474.10293106 78.52430313 472.94878204 78.50759064 471.75965881 78.4903717 C470.16812233 78.46045387 470.16812233 78.46045387 468.54443359 78.42993164 C467.6051149 78.41438736 466.6657962 78.39884308 465.69801331 78.38282776 C463.56567383 78.22460938 463.56567383 78.22460938 462.56567383 77.22460938 C462.4665808 74.89300882 462.43596879 72.55830996 462.44067383 70.22460938 C462.43680664 68.30648437 462.43680664 68.30648437 462.43286133 66.34960938 C462.56567383 63.22460938 462.56567383 63.22460938 463.56567383 62.22460938 C465.68172479 62.10069255 467.80188666 62.04661031 469.92138672 62.01928711 C470.58477554 62.00938751 471.24816437 61.99948792 471.93165588 61.98928833 C474.13384378 61.957592 476.33605328 61.93288404 478.53833008 61.90820312 C480.06148351 61.8876406 481.58463114 61.86664432 483.10777283 61.8452301 C487.12398596 61.7899369 491.14025121 61.74055975 495.15655518 61.69238281 C499.25195982 61.64222055 503.34728844 61.58650702 507.44262695 61.53125 C515.48357838 61.42357984 523.52459324 61.32215471 531.56567383 61.22460938 C530.75642041 59.07754956 529.9431827 56.93199107 529.12817383 54.78710938 C528.67571289 53.59214844 528.22325195 52.3971875 527.75708008 51.16601562 C526.85119123 48.38015214 526.85119123 48.38015214 525.56567383 47.22460938 C523.52771043 47.10939698 521.48572415 47.06491621 519.44458008 47.04760742 C518.13231445 47.03477219 516.82004883 47.02193695 515.46801758 47.00871277 C514.02140683 47.0005413 512.57479181 46.99309835 511.12817383 46.98632812 C510.40114258 46.9822526 509.67411133 46.97817707 508.92504883 46.97397804 C505.0697457 46.95308326 501.21447843 46.93880191 497.35913086 46.92944336 C493.39256086 46.91843044 489.4265599 46.88410093 485.46018982 46.84427166 C482.39905832 46.81799313 479.3380593 46.80974117 476.27682495 46.80616188 C474.81611328 46.80131712 473.35540668 46.78976382 471.89480591 46.77112389 C462.57704239 46.65969871 454.63017251 46.97178327 447.22583008 53.18945312 C446.69860352 53.84042969 446.17137695 54.49140625 445.62817383 55.16210938 C444.81026367 56.13470703 444.81026367 56.13470703 443.97583008 57.12695312 C439.92427418 63.15378281 439.84054403 69.1660674 440.56567383 76.22460938 C442.30288477 82.47648829 446.19204859 86.75407748 451.56567383 90.22460938 C460.80551987 94.67216532 471.69444587 93.7868411 481.69067383 93.91210938 C483.52403081 93.94533411 485.35736525 93.97982841 487.19067383 94.015625 C491.64888175 94.09993777 496.10704387 94.16702325 500.56567383 94.22460938 C500.56567383 98.84460938 500.56567383 103.46460938 500.56567383 108.22460938 C494.42758347 108.27420548 488.2896109 108.31042186 482.15136719 108.33447266 C480.06508348 108.34450364 477.97881374 108.35813164 475.89257812 108.37548828 C472.88643945 108.39986432 469.88048738 108.41112173 466.87426758 108.41992188 C465.94795029 108.43024445 465.021633 108.44056702 464.06724548 108.45120239 C453.80096885 108.45296395 443.12865566 105.55333956 435.56567383 98.22460938 C427.84259217 87.91652931 423.52121011 77.76716498 424.81567383 64.70117188 C426.76000971 54.80589107 431.5658508 45.05813414 439.51489258 38.65429688 C441.50966465 37.34535017 443.40305764 36.23752704 445.56567383 35.22460938 C446.63245361 34.71808838 447.6992334 34.21156738 448.79833984 33.68969727 C455.03228719 31.38463457 461.5676918 31.74276728 468.12817383 31.71289062 C469.52923125 31.69601933 470.93027376 31.67786584 472.33129883 31.65849304 C475.99395079 31.61125221 479.65654228 31.5812763 483.31939697 31.55505371 C487.06697528 31.52511626 490.81434572 31.47863173 494.56176758 31.43359375 C501.89631697 31.34785594 509.23083707 31.28191279 516.56567383 31.22460938 C516.56567383 26.27460937 516.56567383 21.32460937 516.56567383 16.22460938 C509.37561182 16.15628942 502.18573312 16.10148429 494.99541283 16.06917286 C491.6550554 16.05364917 488.31511261 16.03098624 484.97485352 15.99829102 C481.11704484 15.96150189 477.25956471 15.94479051 473.40161133 15.93164062 C471.63979019 15.90841484 471.63979019 15.90841484 469.84237671 15.88471985 C452.23620628 15.88122073 434.58339044 20.58912322 422.56567383 34.22460938 Z M532.56567383 63.22460938 C532.54101637 67.33633497 532.52283424 71.44803215 532.51074219 75.55981445 C532.50570303 76.95956166 532.49887166 78.35930358 532.49023438 79.7590332 C532.47815063 81.76706714 532.47297576 83.77513895 532.46801758 85.78320312 C532.46278076 86.99290771 532.45754395 88.2026123 532.45214844 89.44897461 C532.24792097 92.13272955 532.24792097 92.13272955 533.56567383 93.22460938 C536.46593376 93.33925949 539.34334393 93.38946913 542.24462891 93.39819336 C543.15518539 93.40488037 544.06574188 93.41156738 545.00389099 93.41845703 C546.98843337 93.43254341 548.9729923 93.44442592 550.95755959 93.45440483 C554.09666041 93.47076282 557.2356389 93.49399901 560.37467957 93.51930237 C569.30229636 93.59021743 578.2299638 93.65019874 587.15771484 93.70141602 C592.61189185 93.7331895 598.06593001 93.77446437 603.51999474 93.8216114 C605.60160513 93.83764536 607.68324756 93.84996047 609.76490211 93.8585186 C612.67625661 93.87065811 615.5872843 93.89480333 618.49853516 93.92163086 C619.36155243 93.92222 620.2245697 93.92280914 621.11373901 93.92341614 C622.30621498 93.93799362 622.30621498 93.93799362 623.52278137 93.9528656 C624.21098371 93.95709754 624.89918604 93.96132948 625.60824299 93.96568966 C628.01250022 94.28371346 629.55538448 94.86074876 631.56567383 96.22460938 C633.18868834 102.93306936 633.18868834 102.93306936 631.55447388 106.32087708 C628.56698969 109.18057639 625.45058642 108.78811562 621.5300293 108.75463867 C620.71189758 108.76337006 619.89376587 108.77210144 619.05084229 108.78109741 C616.34462673 108.80551042 613.63917312 108.80206063 610.93286133 108.79882812 C609.05623058 108.8112669 607.1796115 108.82559934 605.30300903 108.8417511 C600.36156825 108.87983173 595.4203281 108.89497515 590.47875977 108.90454102 C582.56140925 108.92426441 574.64421221 108.98098287 566.72702408 109.03330421 C563.95438559 109.04870854 561.181823 109.05585231 558.40914917 109.06144714 C556.72027549 109.0684599 555.03140217 109.07556054 553.3425293 109.08276367 C552.56537567 109.08223495 551.78822205 109.08170624 550.98751831 109.0811615 C547.48415169 108.78016071 547.48415169 108.78016071 544.56567383 110.22460938 C544.46674443 112.38941734 544.43596282 114.55754722 544.44067383 116.72460938 C544.4380957 117.91054687 544.43551758 119.09648437 544.43286133 120.31835938 C544.23357164 123.1172036 544.23357164 123.1172036 545.56567383 124.22460938 C548.16516652 124.3410116 550.73844985 124.39261232 553.33911133 124.40161133 C554.15385422 124.40818253 554.96859711 124.41475372 555.80802917 124.42152405 C558.51891158 124.4413179 561.22973825 124.45293741 563.94067383 124.46289062 C564.8662912 124.46696615 565.79190857 124.47104168 566.74557495 124.47524071 C571.65126322 124.49613434 576.55692329 124.51041779 581.46264648 124.51977539 C586.51877532 124.53080459 591.57445975 124.56515444 596.63043213 124.60494709 C600.52537827 124.63117257 604.42021993 124.63947283 608.31524658 124.64305687 C610.17786639 124.64791302 612.04048183 124.65949918 613.90301514 124.67809486 C627.33378611 125.11042541 627.33378611 125.11042541 639.56567383 120.22460938 C640.49379883 119.62648437 641.42192383 119.02835938 642.37817383 118.41210938 C647.22062034 113.56966286 649.29818112 108.32752478 649.87817383 101.59960938 C649.78364314 95.28968613 647.59531062 89.25424617 643.12817383 84.78710938 C641.85973633 84.01367188 641.85973633 84.01367188 640.56567383 83.22460938 C639.72004883 82.66773438 638.87442383 82.11085938 638.00317383 81.53710938 C633.59174324 79.16172367 629.73681139 79.08981276 624.75268555 79.05102539 C624.07566086 79.04433838 623.39863617 79.03765137 622.70109558 79.03076172 C621.23391368 79.01674092 619.76671035 79.00483747 618.2994957 78.99481392 C615.96920823 78.97833063 613.6390773 78.95508638 611.30886841 78.92991638 C604.68426407 78.85936939 598.05959377 78.79929191 591.43481445 78.74780273 C587.37763997 78.71579505 583.32064349 78.67446088 579.26361465 78.62760735 C577.72565068 78.61171025 576.18764577 78.59933284 574.64962387 78.59070015 C566.43344623 78.54394372 558.5572828 78.30693345 550.56567383 76.22460938 C549.83911591 76.07943375 549.11255798 75.93425812 548.36398315 75.78468323 C547.77054108 75.59985886 547.177099 75.41503448 546.56567383 75.22460938 C546.23567383 74.56460938 545.90567383 73.90460938 545.56567383 73.22460938 C544.12111489 71.9751083 542.63594651 70.77205341 541.12817383 69.59960938 C540.32508789 68.96796875 539.52200195 68.33632812 538.69458008 67.68554688 C536.72116012 66.03600193 536.72116012 66.03600193 534.56567383 66.22460938 C534.23567383 65.23460937 533.90567383 64.24460937 533.56567383 63.22460938 C533.23567383 63.22460938 532.90567383 63.22460938 532.56567383 63.22460938 Z " fill="#1C87AE" transform="translate(312.434326171875,80.775390625)"/>
<path d="M0 0 C1.42884989 -0.00051024 2.85770004 -0.00277511 4.2865448 -0.00663757 C8.12269033 -0.01200114 11.95834267 0.00719503 15.79440022 0.03146338 C19.82041625 0.05291678 23.84643345 0.05217051 27.87249756 0.05415344 C34.61706938 0.06057323 41.36145795 0.08172798 48.10595703 0.11328125 C56.77197041 0.15376989 65.43786542 0.17100242 74.10396194 0.18059063 C81.56136841 0.18887393 89.01874972 0.20610132 96.4761343 0.22562814 C98.07625218 0.22967947 99.67637088 0.23341866 101.27649021 0.2368505 C105.826362 0.24660988 110.3761623 0.26105108 114.92598915 0.2836895 C116.30592259 0.28982872 117.68586473 0.29426955 119.06580925 0.29693222 C120.941207 0.3008923 122.81658683 0.31164187 124.69195557 0.32279968 C126.26916571 0.3292099 126.26916571 0.3292099 127.87823868 0.33574963 C130.22949219 0.4699707 130.22949219 0.4699707 131.22949219 1.4699707 C133.55933607 23.85419909 133.55933607 23.85419909 128.04199219 31.6574707 C126.11621094 33.76293945 126.11621094 33.76293945 124.22949219 35.4699707 C123.7203125 36.00235352 123.21113281 36.53473633 122.68652344 37.08325195 C121.56900911 38.24664663 120.40420437 39.36435923 119.22949219 40.4699707 C118.89949219 41.1299707 118.56949219 41.7899707 118.22949219 42.4699707 C117.23949219 42.4699707 116.24949219 42.4699707 115.22949219 42.4699707 C114.89949219 34.2199707 114.56949219 25.9699707 114.22949219 17.4699707 C107.29949219 16.9749707 107.29949219 16.9749707 100.22949219 16.4699707 C100.22949219 52.1099707 100.22949219 87.7499707 100.22949219 124.4699707 C104.84949219 124.1399707 109.46949219 123.8099707 114.22949219 123.4699707 C114.21789062 121.79563965 114.20628906 120.12130859 114.19433594 118.39624023 C114.1652081 112.82801873 114.173332 107.26065968 114.20614624 101.69246101 C114.22468443 98.32031033 114.22884856 94.94948755 114.19873047 91.57739258 C114.17144818 87.68894918 114.19568684 83.80361849 114.22949219 79.9152832 C114.21007568 78.72009064 114.19065918 77.52489807 114.1706543 76.29348755 C114.3051729 68.39254287 116.08792766 64.12715875 121.31933594 58.18478394 C123.22949219 56.4699707 123.22949219 56.4699707 125.22949219 56.4699707 C125.47957031 55.91051758 125.72964844 55.35106445 125.98730469 54.7746582 C128.64317143 49.8471067 132.63328356 45.73557008 136.22949219 41.4699707 C136.69210449 40.91954102 137.1547168 40.36911133 137.63134766 39.80200195 C143.56042917 32.76360842 149.63277018 25.89621028 155.91992188 19.17602539 C159.94932094 14.84221845 163.70117947 10.34163323 167.38964844 5.7121582 C168.30037109 4.60227539 168.30037109 4.60227539 169.22949219 3.4699707 C169.64181595 2.93574997 170.05413971 2.40152924 170.47895813 1.85112 C173.00983004 -0.14570602 174.88204781 0.10929495 178.07788086 0.12939453 C179.27889938 0.12962112 180.47991791 0.12984772 181.71733093 0.13008118 C183.01427383 0.14556503 184.31121674 0.16104889 185.64746094 0.17700195 C186.98838324 0.18259836 188.32931168 0.18686825 189.67024231 0.18986511 C193.19673649 0.20131052 196.72285903 0.23077453 200.24920654 0.26397705 C203.84870374 0.29468481 207.44826109 0.30837192 211.04785156 0.32348633 C218.10855033 0.35564492 225.16899697 0.40683726 232.22949219 0.4699707 C231.39662397 4.58525543 229.61882561 6.53191154 226.72949219 9.5949707 C223.61570434 12.77779253 223.61570434 12.77779253 221.22949219 16.4699707 C220.56949219 16.4699707 219.90949219 16.4699707 219.22949219 16.4699707 C218.95419678 17.06366455 218.67890137 17.6573584 218.39526367 18.26904297 C217.28479589 20.36555962 216.14258164 21.91504072 214.57714844 23.68481445 C214.05282227 24.28269775 213.52849609 24.88058105 212.98828125 25.49658203 C212.42850586 26.12717529 211.86873047 26.75776855 211.29199219 27.4074707 C210.12081689 28.74288015 208.95025563 30.07882833 207.78027344 31.4152832 C207.18939941 32.08849609 206.59852539 32.76170898 205.98974609 33.45532227 C203.29298231 36.54182639 200.63122494 39.65726193 197.97949219 42.7824707 C197.51422119 43.32701904 197.0489502 43.87156738 196.56958008 44.43261719 C194.14658095 47.27805091 194.14658095 47.27805091 192.22949219 50.4699707 C191.56949219 50.4699707 190.90949219 50.4699707 190.22949219 50.4699707 C189.98585938 51.0371582 189.74222656 51.6043457 189.49121094 52.1887207 C187.52828767 55.7377832 184.63236736 58.36615442 181.81152344 61.2512207 C180.05747511 63.2742098 180.05747511 63.2742098 180.17871094 65.37231445 C181.73492895 68.47896529 183.9435608 70.94970485 186.22949219 73.5324707 C187.24070058 74.69975406 188.25110635 75.86773316 189.26074219 77.03637695 C189.76476562 77.61661621 190.26878906 78.19685547 190.78808594 78.79467773 C192.81432833 81.14970404 194.77329554 83.5566194 196.72949219 85.9699707 C204.18865157 95.11474083 211.72858516 104.14593602 219.87744141 112.68847656 C223.22949219 116.25609529 223.22949219 116.25609529 223.22949219 118.4699707 C223.88949219 118.4699707 224.54949219 118.4699707 225.22949219 118.4699707 C227.0779653 120.642894 228.82162708 122.82399738 230.54199219 125.0949707 C231.49554342 126.33783067 232.44996456 127.58002372 233.40527344 128.8215332 C233.87143066 129.43158203 234.33758789 130.04163086 234.81787109 130.67016602 C236.19491838 132.4258894 237.62800472 134.11631146 239.08496094 135.8059082 C241.22949219 138.4699707 241.22949219 138.4699707 241.22949219 140.4699707 C233.48450485 140.79642385 225.74116717 141.0441029 217.99100113 141.19534111 C214.39043165 141.26799422 210.79461157 141.36621016 207.19677734 141.52612305 C182.01878282 142.61623633 182.01878282 142.61623633 175.77880859 137.5065918 C173.10294043 134.69815777 171.10286826 131.66855134 169.26553345 128.26376343 C167.56106067 125.31265425 165.34714491 122.90445123 163.10449219 120.3449707 C160.73228221 117.48615355 158.74815917 114.86740095 157.22949219 111.4699707 C156.56949219 111.4699707 155.90949219 111.4699707 155.22949219 111.4699707 C153.60839844 109.60668945 153.60839844 109.60668945 151.79199219 107.1574707 C149.45489696 103.93398758 149.45489696 103.93398758 146.63818359 101.16137695 C144.66612094 98.79353465 144.88599355 97.19438844 144.93652344 94.14575195 C144.94619141 93.11772461 144.95585937 92.08969727 144.96582031 91.03051758 C144.99095703 89.95866211 145.01609375 88.88680664 145.04199219 87.7824707 C145.05552734 86.69901367 145.0690625 85.61555664 145.08300781 84.49926758 C145.11838575 81.82233666 145.1677503 79.14640233 145.22949219 76.4699707 C149.86772996 77.31830774 152.08333449 80.12959362 155.10449219 83.5324707 C155.63969482 84.12374756 156.17489746 84.71502441 156.72631836 85.32421875 C159.97568439 88.95020796 163.02693135 92.65234039 165.85058594 96.62231445 C168.01207091 99.51858186 170.46359242 102.14858177 172.90917969 104.8059082 C174.22949219 106.4699707 174.22949219 106.4699707 174.22949219 108.4699707 C174.88949219 108.4699707 175.54949219 108.4699707 176.22949219 108.4699707 C177.73730469 110.1496582 177.73730469 110.1496582 179.35449219 112.3449707 C179.89332031 113.06426758 180.43214844 113.78356445 180.98730469 114.5246582 C182.22949219 116.4699707 182.22949219 116.4699707 182.22949219 118.4699707 C182.88949219 118.4699707 183.54949219 118.4699707 184.22949219 118.4699707 C184.75027344 119.28852539 185.27105469 120.10708008 185.80761719 120.95043945 C188.45449877 123.70405013 188.76621818 123.83497488 192.33886719 123.95825195 C193.88649826 123.92518291 195.43375134 123.86578178 196.97949219 123.7824707 C197.77226562 123.75991211 198.56503906 123.73735352 199.38183594 123.71411133 C201.33186839 123.65537541 203.2809253 123.56569724 205.22949219 123.4699707 C201.18136461 118.1544962 197.03769721 113.01955639 192.51464844 108.09887695 C191.22949219 106.4699707 191.22949219 106.4699707 191.22949219 104.4699707 C190.56949219 104.4699707 189.90949219 104.4699707 189.22949219 104.4699707 C187.89058009 102.70824425 186.56102024 100.93901319 185.26464844 99.14575195 C182.73704129 95.82250647 180.02771861 92.68488879 177.29199219 89.5324707 C173.30788111 84.93133507 169.43648515 80.29136778 165.76855469 75.4309082 C163.73120568 72.83509804 161.49241185 70.44569128 159.19824219 68.07543945 C158.22949219 66.4699707 158.22949219 66.4699707 158.50927734 64.56835938 C159.29306369 62.28475137 160.17148088 61.07128288 161.78417969 59.2902832 C162.57538208 58.40095093 162.57538208 58.40095093 163.38256836 57.49365234 C163.95080322 56.8670874 164.51903809 56.24052246 165.10449219 55.5949707 C170.26031182 49.8051624 175.14845191 43.88937149 179.80126953 37.68725586 C180.90031952 36.24707814 182.05947145 34.85310997 183.22949219 33.4699707 C183.88949219 33.4699707 184.54949219 33.4699707 185.22949219 33.4699707 C185.5659375 32.67333008 185.5659375 32.67333008 185.90917969 31.8605957 C187.6778839 28.65808985 189.99009421 25.98889471 192.35449219 23.2199707 C193.96324219 21.3224707 195.57199219 19.4249707 197.22949219 17.4699707 C191.28949219 17.1399707 185.34949219 16.8099707 179.22949219 16.4699707 C179.22949219 17.1299707 179.22949219 17.7899707 179.22949219 18.4699707 C178.56949219 18.4699707 177.90949219 18.4699707 177.22949219 18.4699707 C176.82657959 19.34371338 176.82657959 19.34371338 176.41552734 20.23510742 C175.21591978 22.49554539 173.89276936 24.26792573 172.25292969 26.2277832 C171.66825928 26.93136963 171.08358887 27.63495605 170.48120117 28.35986328 C169.86188721 29.09744873 169.24257324 29.83503418 168.60449219 30.5949707 C167.33166909 32.12174141 166.0595301 33.64908272 164.78808594 35.17700195 C164.17433105 35.9138623 163.56057617 36.65072266 162.92822266 37.40991211 C160.20422183 40.71332099 157.5800276 44.09109655 154.97558594 47.48950195 C152.93516394 49.80380609 150.64956114 51.5619853 148.22949219 53.4699707 C143.38647986 58.45446429 139.13737677 64.02081163 134.83105469 69.46606445 C133.22949219 71.4699707 133.22949219 71.4699707 132.22949219 72.4699707 C132.11089044 74.55023203 132.06206631 76.63449451 132.04003906 78.71801758 C132.03174576 79.37004654 132.02345245 80.0220755 132.01490784 80.69386292 C131.99747418 82.11363768 131.9823165 83.53344175 131.96913147 84.95326233 C131.94816646 87.19682476 131.92113959 89.44023969 131.89245605 91.68371582 C131.83266618 96.44574465 131.78054618 101.20784124 131.72949219 105.9699707 C131.67035582 111.48599486 131.60813529 117.00194616 131.53761292 122.51783752 C131.51094649 124.73423956 131.4901875 126.95064855 131.46960449 129.16711426 C131.45300788 130.51872104 131.43613661 131.87032448 131.41894531 133.22192383 C131.40641724 134.40693481 131.39388916 135.5919458 131.38098145 136.81286621 C131.22949219 139.4699707 131.22949219 139.4699707 130.22949219 140.4699707 C128.78659432 140.56292886 127.33919434 140.58743583 125.89331055 140.58349609 C124.97243149 140.58342056 124.05155243 140.58334503 123.10276794 140.58326721 C122.10173538 140.57810593 121.10070282 140.57294464 120.06933594 140.56762695 C119.04973282 140.56621201 118.0301297 140.56479706 116.97962952 140.56333923 C113.70872111 140.55772167 110.43788006 140.5451662 107.16699219 140.5324707 C104.95540463 140.52745797 102.74381601 140.52289467 100.53222656 140.51879883 C95.09795565 140.50774653 89.66373535 140.49047014 84.22949219 140.4699707 C83.89949219 135.8499707 83.56949219 131.2299707 83.22949219 126.4699707 C81.28042969 128.3262207 81.28042969 128.3262207 79.29199219 130.2199707 C69.56804929 138.83304063 58.51909961 140.79593154 45.84448242 140.69702148 C44.35021477 140.69745956 44.35021477 140.69745956 42.82575989 140.69790649 C39.56311045 140.69652336 36.30069503 140.68101027 33.03808594 140.6652832 C30.76408513 140.66154946 28.49008271 140.65870419 26.21607971 140.65670776 C20.25340269 140.6490998 14.2908243 140.62947577 8.32818604 140.6072998 C1.16195463 140.58316746 -6.0043099 140.57404689 -13.17057037 140.56239319 C-24.03728462 140.54304968 -34.90378278 140.50470717 -45.77050781 140.4699707 C-45.77050781 124.9599707 -45.77050781 109.4499707 -45.77050781 93.4699707 C-21.26402531 93.30953547 -21.26402531 93.30953547 -10.82324219 93.2746582 C-3.69706317 93.25074061 3.42891039 93.2224366 10.55493164 93.16821289 C16.2996731 93.12477292 22.04419427 93.10083718 27.7890873 93.09046173 C29.98157533 93.0830671 32.17405121 93.06862726 34.36644554 93.04705048 C37.43588759 93.01804168 40.50441768 93.01401373 43.57397461 93.01586914 C44.48172134 93.00148804 45.38946808 92.98710693 46.32472229 92.97229004 C50.45464003 92.9993286 52.67107046 93.13235823 56.27436829 95.31085205 C58.7639915 98.06023889 59.15274995 99.78634347 59.22949219 103.4699707 C58.1093032 106.83053766 57.2841512 107.43353136 54.22949219 109.4699707 C51.51073007 109.65417827 48.89604254 109.72225058 46.17797852 109.69702148 C45.35824051 109.69731354 44.5385025 109.69760559 43.69392395 109.69790649 C40.9830163 109.69651258 38.27238311 109.68094852 35.56152344 109.6652832 C33.6825119 109.66155329 31.80349843 109.65870622 29.92448425 109.65670776 C24.97769811 109.64906959 20.03102931 109.62941949 15.08428955 109.6072998 C10.03700345 109.58684536 4.98969841 109.5777069 -0.05761719 109.56762695 C-9.96196563 109.5461738 -19.86622697 109.5120356 -29.77050781 109.4699707 C-29.77050781 114.4199707 -29.77050781 119.3699707 -29.77050781 124.4699707 C-18.71273607 124.43184754 -7.65530116 124.37238933 3.40220547 124.28606796 C8.53727389 124.24664298 13.6721721 124.21443006 18.80737305 124.19897461 C23.76778918 124.18377527 28.72773722 124.14927151 33.68794441 124.10166168 C35.57561221 124.08688166 37.46334684 124.07893164 39.35107231 124.07808685 C42.00562695 124.07570522 44.65890042 124.04853065 47.31323242 124.01586914 C48.08503845 124.02089951 48.85684448 124.02592987 49.65203857 124.03111267 C56.9490573 123.89317309 63.42800644 121.61242666 68.60449219 116.3449707 C72.34378693 111.44628569 74.4441528 105.98631593 74.06542969 99.7824707 C73.24194371 95.09278786 71.95025992 91.42745103 69.22949219 87.4699707 C69.22949219 86.8099707 69.22949219 86.1499707 69.22949219 85.4699707 C67.24949219 84.9749707 67.24949219 84.9749707 65.22949219 84.4699707 C65.22949219 83.8099707 65.22949219 83.1499707 65.22949219 82.4699707 C58.08759127 80.1405605 51.04371353 80.17463758 43.60152435 80.16501045 C41.29548116 80.16130728 38.98985315 80.14447306 36.68389893 80.12425232 C30.13260682 80.06922682 23.58125479 80.03827651 17.02978516 80.01367188 C13.00685096 79.99766186 8.98421279 79.96730582 4.96143341 79.92890739 C3.44186836 79.91737584 1.92225009 79.9113281 0.4026413 79.91122627 C-9.14234022 79.91035488 -19.03690392 79.83677265 -27.77050781 75.4699707 C-27.77050781 74.8099707 -27.77050781 74.1499707 -27.77050781 73.4699707 C-28.45113281 73.2637207 -29.13175781 73.0574707 -29.83300781 72.8449707 C-38.4153974 68.82768196 -44.11631437 61.04904718 -47.64550781 52.4074707 C-50.58359261 42.28346768 -49.82393505 31.5127499 -45.24316406 22.08325195 C-38.92096792 10.86428851 -30.76342917 4.91124138 -18.38370514 1.2777195 C-12.25626494 -0.09210119 -6.25442954 -0.06127472 0 0 Z M-21.77050781 19.4699707 C-21.77050781 20.1299707 -21.77050781 20.7899707 -21.77050781 21.4699707 C-22.88425781 21.7793457 -22.88425781 21.7793457 -24.02050781 22.0949707 C-28.31146337 24.24044848 -30.01846644 27.23312969 -31.53222656 31.7355957 C-33.2859091 38.83968547 -32.97623799 45.16248416 -29.61035156 51.7355957 C-26.01837322 57.13857149 -21.97074106 59.6172533 -15.77050781 61.4699707 C-10.585702 62.04410897 -5.4276597 62.02789655 -0.21972656 62.0090332 C1.28567417 62.01896288 2.79106279 62.03091265 4.2964325 62.04476929 C8.24227087 62.07697464 12.18783224 62.08750715 16.13378906 62.09161377 C22.43628101 62.10039918 28.73854688 62.13637742 35.0408535 62.1837883 C37.22087334 62.19619515 39.4005954 62.19563083 41.5806427 62.19351196 C62.21666612 62.25201877 62.21666612 62.25201877 71.22949219 67.4699707 C71.88949219 67.4699707 72.54949219 67.4699707 73.22949219 67.4699707 C73.55949219 68.1299707 73.88949219 68.7899707 74.22949219 69.4699707 C75.51421195 70.66716011 76.83130355 71.82992543 78.16699219 72.9699707 C80.25645136 74.75985225 82.28349388 76.52397239 84.22949219 78.4699707 C84.22949219 68.2399707 84.22949219 58.0099707 84.22949219 47.4699707 C51.88949219 47.1399707 19.54949219 46.8099707 -13.77050781 46.4699707 C-14.64159943 43.85669585 -14.95930581 42.16285899 -15.02050781 39.4699707 C-15.04628906 38.7893457 -15.07207031 38.1087207 -15.09863281 37.4074707 C-14.77050781 35.4699707 -14.77050781 35.4699707 -13.7532196 33.87590027 C-10.66005999 31.68255852 -7.3767543 32.03082165 -3.71899414 32.03759766 C-2.89925613 32.02740601 -2.07951813 32.01721436 -1.23493958 32.00671387 C1.47592943 31.97650757 4.18644553 31.96730638 6.89746094 31.95825195 C8.77648602 31.94141091 10.65549979 31.92326145 12.53450012 31.90385437 C17.48119575 31.85628579 22.42784556 31.82652084 27.37469482 31.80041504 C32.42208916 31.77064407 37.46932548 31.72410189 42.51660156 31.67895508 C52.42081589 31.59284397 62.32506268 31.52553345 72.22949219 31.4699707 C72.22949219 26.5199707 72.22949219 21.5699707 72.22949219 16.4699707 C61.45000139 16.40026141 50.67056479 16.34705347 39.89089394 16.31453419 C34.88470078 16.29892147 29.87866259 16.27776392 24.87255859 16.24365234 C20.03554143 16.21090161 15.19867273 16.19308469 10.36155319 16.18533897 C8.52209514 16.17982356 6.68264461 16.1690537 4.84325027 16.15278053 C-8.74865858 15.91673209 -8.74865858 15.91673209 -21.77050781 19.4699707 Z " fill="#1C87AE" transform="translate(70.7705078125,80.530029296875)"/>
</svg>
